<?xml version="1.0" encoding="utf-8"?>
<svg
    xmlns="http://www.w3.org/2000/svg"
    xmlns:cc="http://creativecommons.org/ns#"
    xmlns:dc="http://purl.org/dc/elements/1.1/"
    xmlns:rdf="http://www.w3.org/1999/02/22-rdf-syntax-ns#"
    width="220"
    height="80"
    viewBox="0 0 220 80"
    style="shape-rendering: auto">

    <metadata>
        <rdf:RDF>
            <cc:Work>
                <dc:format>image/svg+xml</dc:format>
                <dc:type rdf:resource="http://purl.org/dc/dcmitype/StillImage"/>
                <dc:rights><cc:Agent><dc:title>Copyright © 20NN—20NN Author/Rightholder. All rights reserved.</dc:title></cc:Agent></dc:rights>
                <dc:creator><cc:Agent><dc:title>Author/Rightholder</dc:title></cc:Agent></dc:creator>
            </cc:Work>
        </rdf:RDF>
    </metadata>

    <g id="logo">
        <rect x="0.5" y="0.5" width="219" height="79" style="fill-opacity: .1; stroke: black"/>
        <path transform="matrix(1, 0, 0, 1, 62.5, 52.5)" style="fill: #a5a5a5" d="M 0 -25 L 0 0 L 20 0 L 20 -5 L 5 -5 L 5 -25 L 0 -25 z M 25 -25 L 25 0 L 45 0 L 45 -25 L 25 -25 z M 50 -25 L 50 0 L 70 0 L 70 -15 L 60 -15 L 60 -10 L 65 -10 L 65 -5 L 55 -5 L 55 -20 L 70 -20 L 70 -25 L 50 -25 z M 75 -25 L 75 0 L 95 0 L 95 -25 L 75 -25 z M 30 -20 L 40 -20 L 40 -5 L 30 -5 L 30 -20 z M 80 -20 L 90 -20 L 90 -5 L 80 -5 L 80 -20 z"/>
    </g>

</svg>