<?xml version="1.0" encoding="utf-8"?>
<svg
    xmlns="http://www.w3.org/2000/svg"
    xmlns:cc="http://creativecommons.org/ns#"
    xmlns:dc="http://purl.org/dc/elements/1.1/"
    xmlns:rdf="http://www.w3.org/1999/02/22-rdf-syntax-ns#"
    width="220"
    height="64"
    viewBox="0 0 220 64"
    style="shape-rendering: auto">

    <metadata>
        <rdf:RDF>
            <cc:Work>
                <dc:format>image/svg+xml</dc:format>
                <dc:type rdf:resource="http://purl.org/dc/dcmitype/StillImage"/>
                <dc:rights><cc:Agent><dc:title>Copyright © 20NN—20NN Author/Rightholder. All rights reserved.</dc:title></cc:Agent></dc:rights>
                <dc:creator><cc:Agent><dc:title>Author/Rightholder</dc:title></cc:Agent></dc:creator>
            </cc:Work>
        </rdf:RDF>
    </metadata>

    <g id="logo">
        <rect x="0.5" y="0.5" width="219" height="63" style="fill-opacity: .1; stroke: black"/>
        <path transform="matrix(1, 0, 0, 1, 62.5, 19.5)" style="fill: #a5a5a5" d="M 48.5 0 L 48.5 25 L 28.5 25 L 28.5 0 L 48.5 0 Z M 73.5 0 L 73.5 5 L 58.5 5 L 58.5 25 L 53.5 25 L 53.5 0 L 73.5 0 Z M 98.5 0 L 98.5 25 L 78.5 25 L 78.5 0 L 98.5 0 Z M 33.5 20 L 43.5 20 L 43.5 5 L 33.5 5 L 33.5 20 Z M 83.5 20 L 93.5 20 L 93.5 5 L 83.5 5 L 83.5 20 Z M 23.5 0 L 23.5 25 L 18.5 25 L 18.5 5 L 8.5 5 L 8.5 25 L 3.5 25 L 0 25 L 0 20 L 3.5 20 L 3.5 0 L 23.5 0 Z"/>
    </g>

</svg>